<svg xmlns="http://www.w3.org/2000/svg" xmlns:xlink="http://www.w3.org/1999/xlink" viewBox="0 0 334.77 220.22"><defs><style>.cls-1,.cls-2,.cls-22,.cls-25,.cls-26,.cls-28,.cls-6,.cls-7,.cls-8,.cls-9{fill:none;}.cls-2{stroke:#010101;stroke-width:0.75px;}.cls-2,.cls-22,.cls-25,.cls-26,.cls-28,.cls-6,.cls-7,.cls-8,.cls-9{stroke-linecap:round;stroke-linejoin:round;}.cls-14,.cls-23,.cls-3{font-size:7px;}.cls-3,.cls-4{fill:#010101;}.cls-3{font-family:ArialMT, Arial;}.cls-15,.cls-4{font-size:8px;}.cls-13,.cls-14,.cls-15,.cls-23,.cls-4{font-family:MyriadPro-Regular, Myriad Pro;}.cls-5{clip-path:url(#clip-path);}.cls-25,.cls-6{stroke:#e6a024;}.cls-6,.cls-7,.cls-8,.cls-9{stroke-width:1.13px;}.cls-22,.cls-7{stroke:#059e74;}.cls-26,.cls-8{stroke:#0673b3;}.cls-9{stroke:#bfbebe;}.cls-10{clip-path:url(#clip-path-2);}.cls-11{clip-path:url(#clip-path-3);}.cls-12{clip-path:url(#clip-path-4);}.cls-13{font-size:4px;}.cls-13,.cls-14,.cls-15,.cls-23{fill:#231f20;}.cls-16{letter-spacing:-0.02em;}.cls-17{letter-spacing:-0.04em;}.cls-18{letter-spacing:-0.01em;}.cls-19{letter-spacing:0em;}.cls-20{letter-spacing:-0.03em;}.cls-21{letter-spacing:0em;}.cls-22,.cls-25,.cls-26,.cls-28{stroke-width:1.5px;}.cls-23{letter-spacing:-0.09em;}.cls-24{letter-spacing:0em;}.cls-27{letter-spacing:-0.01em;}.cls-28{stroke:#aaa;}</style><clipPath id="clip-path"><rect class="cls-1" x="22.39" y="0.38" width="204.24" height="189.41"/></clipPath><clipPath id="clip-path-2"><rect class="cls-1" x="240.81" y="0.58" width="93.38" height="58.39"/></clipPath><clipPath id="clip-path-3"><rect class="cls-1" x="240.81" y="66.31" width="93.38" height="58.39"/></clipPath><clipPath id="clip-path-4"><rect class="cls-1" x="240.81" y="133.33" width="93.38" height="58.39"/></clipPath></defs><title>Asset 4</title><g id="Layer_2" data-name="Layer 2"><g id="Layer_1-2" data-name="Layer 1"><line class="cls-2" x1="27.78" y1="189.76" x2="201.67" y2="189.76"/><line class="cls-2" x1="27.78" y1="189.76" x2="27.78" y2="193.43"/><line class="cls-2" x1="71.25" y1="189.76" x2="71.25" y2="193.43"/><line class="cls-2" x1="114.73" y1="189.76" x2="114.73" y2="193.43"/><line class="cls-2" x1="158.2" y1="189.76" x2="158.2" y2="193.43"/><line class="cls-2" x1="201.67" y1="189.76" x2="201.67" y2="193.43"/><text class="cls-3" transform="translate(26.13 202.88) scale(0.97 1)">0</text><text class="cls-3" transform="translate(67.97 202.88) scale(0.97 1)">20</text><text class="cls-3" transform="translate(111.44 202.88) scale(0.97 1)">40</text><text class="cls-3" transform="translate(154.91 202.88) scale(0.97 1)">60</text><text class="cls-3" transform="translate(198.38 202.88) scale(0.97 1)">80</text><line class="cls-2" x1="22.39" y1="182.75" x2="22.39" y2="7.37"/><line class="cls-2" x1="22.39" y1="182.75" x2="18.84" y2="182.75"/><line class="cls-2" x1="22.39" y1="147.67" x2="18.84" y2="147.67"/><line class="cls-2" x1="22.39" y1="112.6" x2="18.84" y2="112.6"/><line class="cls-2" x1="22.39" y1="77.52" x2="18.84" y2="77.52"/><line class="cls-2" x1="22.39" y1="42.44" x2="18.84" y2="42.44"/><line class="cls-2" x1="22.39" y1="7.37" x2="18.84" y2="7.37"/><text class="cls-3" transform="translate(13.88 187) rotate(-90) scale(1.04 1)">0.0</text><text class="cls-3" transform="translate(13.88 151.92) rotate(-90) scale(1.04 1)">0.2</text><text class="cls-3" transform="translate(13.88 116.85) rotate(-90) scale(1.04 1)">0.4</text><text class="cls-3" transform="translate(13.88 81.77) rotate(-90) scale(1.04 1)">0.6</text><text class="cls-3" transform="translate(13.88 46.7) rotate(-90) scale(1.04 1)">0.8</text><text class="cls-3" transform="translate(13.88 11.62) rotate(-90) scale(1.04 1)">1.0</text><text class="cls-4" transform="translate(6.7 99.14) rotate(-90) scale(1.04 1)">KS</text><polyline class="cls-2" points="22.39 189.78 226.62 189.78 226.62 0.38 22.39 0.38 22.39 189.78"/><g class="cls-5"><polyline class="cls-6" points="29.95 178.9 32.13 180.22 34.3 179.55 36.47 179.4 38.65 176.35 40.82 178.84 42.99 177.79 45.17 177.11 47.34 176.13 49.51 176.68 51.69 172.94 53.86 174.77 56.04 175.53 58.21 173.84 60.38 176.75 62.56 174.08 64.73 174.74 66.9 173.43 69.08 173.2 71.25 174.59 73.43 172.68 75.6 171.43 77.77 171.77 79.95 175.36 82.12 168.57 84.29 173.81 86.47 173.03 88.64 171.92 90.82 173.82 92.99 172.4 95.16 173.76 97.34 173.97 99.51 171.59 101.69 171.55 103.86 171.3 106.03 171.61 108.2 171.09 110.38 170.96 112.55 172 114.73 172.53 116.9 170.37 119.07 172.36 121.25 170.99 123.42 172.21 125.59 170.35 127.77 171.28 129.94 171.24 132.12 170.4 134.29 171.2 136.46 170.48 138.63 171.47 140.81 173.03 142.98 170.62 145.16 170.13 147.33 171.49 149.5 169.39 151.68 169.11 153.85 170.84 156.02 168.26 158.2 172.79 160.37 170.22 162.54 169.54 164.72 167.66 166.89 169.81 169.06 169.75 171.24 168.37 173.41 169.2 175.59 170.16 177.76 167.97 179.93 167.39 182.11 167.57 184.28 168.8 186.45 171.6 188.63 166.06 190.8 169.17 192.97 168 195.15 168.72 197.32 169.48 199.5 168.93 201.67 171.1 203.84 170.37 206.02 168.7 208.19 170.49 210.36 168.34 212.54 169.65 214.71 168.8 216.89 170.32 219.06 170"/><polyline class="cls-7" points="29.95 181.9 32.13 181.77 34.3 181.74 36.47 181.61 38.65 181.42 40.82 181.4 42.99 181.28 45.17 181.22 47.34 181.16 49.51 180.92 51.69 180.79 53.86 180.71 56.04 180.66 58.21 180.59 60.38 180.52 62.56 180.39 64.73 180.26 66.9 180.24 69.08 179.92 71.25 179.83 73.43 179.75 75.6 179.63 77.77 179.61 79.95 179.58 82.12 179.5 84.29 179.4 86.47 179.13 88.64 179.12 90.82 179.02 92.99 178.95 95.16 178.73 97.34 178.6 99.51 178.37 101.69 178.36 103.86 177.84 106.03 177.74 108.2 177.69 110.38 177.52 112.55 177.5 114.73 177.37 116.9 177.35 119.07 177.22 121.25 177.13 123.42 177.08 125.59 177.08 127.77 177.01 129.94 176.82 132.12 176.8 134.29 176.63 136.46 176.5 138.63 176.44 140.81 176.39 142.98 176.28 145.16 176.09 147.33 176.06 149.5 176.02 151.68 175.92 153.85 175.83 156.02 175.76 158.2 175.75 160.37 175.52 162.54 175.49 164.72 175.19 166.89 175.17 169.06 174.54 171.24 174.09 173.41 173.69 175.59 172.35 177.76 172.05 179.93 171.87 182.11 171.43 184.28 169.44 186.45 168.43 188.63 168.24 190.8 167.22 192.97 166.7 195.15 166.64 197.32 166.59 199.5 166.44 201.67 166.01 203.84 165.99 206.02 165.6 208.19 165.57 210.36 165.44 212.54 165.36 214.71 165.33 216.89 164.54 219.06 163.43"/><polyline class="cls-8" points="29.95 172.98 32.13 167.63 34.3 171.4 36.47 167.06 38.65 169.35 40.82 171.22 42.99 167.09 45.17 166.13 47.34 170.41 49.51 159.09 51.69 166.28 53.86 169.93 56.04 168.14 58.21 164.67 60.38 171.01 62.56 163.96 64.73 161.76 66.9 165.63 69.08 165.76 71.25 164.03 73.43 163.21 75.6 161.15 77.77 164.65 79.95 167.46 82.12 156.13 84.29 159.08 86.47 161.04 88.64 162.05 90.82 165.75 92.99 162.88 95.16 166.49 97.34 165.57 99.51 163.97 101.69 161.74 103.86 162.19 106.03 163.42 108.2 162.48 110.38 164.33 112.55 158.99 114.73 159.32 116.9 164.15 119.07 159.45 121.25 162.08 123.42 158.9 125.59 157 127.77 153.19 129.94 160.6 132.12 158.08 134.29 152.07 136.46 156.82 138.63 164.31 140.81 160.77 142.98 153.47 145.16 155.54 147.33 156.68 149.5 164.23 151.68 162.77 153.85 154.34 156.02 162.21 158.2 153.26 160.37 160.07 162.54 159.53 164.72 166 166.89 153.68 169.06 162.53 171.24 134.82 173.41 162.6 175.59 158.96 177.76 159.74 179.93 148.93 182.11 149.73 184.28 161.73 186.45 153.97 188.63 157.63 190.8 148.81 192.97 147.73 195.15 140.84 197.32 150.36 199.5 162.07 201.67 145.75 203.84 147.89 206.02 163.91 208.19 144.08 210.36 163.75 212.54 162.97 214.71 162.81 216.89 143.97 219.06 142.58"/><polyline class="cls-9" points="29.95 62.83 32.13 37.8 34.3 52.74 36.47 32.91 38.65 81 40.82 41.66 42.99 40.8 45.17 51.25 47.34 53.16 49.51 55.43 51.69 75.55 53.86 50.55 56.04 23.23 58.21 51.13 60.38 27.14 62.56 49.58 64.73 67.39 66.9 55.8 69.08 51.17 71.25 37.82 73.43 48.7 75.6 59.43 77.77 53.85 79.95 35.17 82.12 69.45 84.29 46.65 86.47 43.96 88.64 58.04 90.82 42.27 92.99 47.02 95.16 36.89 97.34 34.23 99.51 37.82 101.69 74.21 103.86 48.49 106.03 30.48 108.2 70.24 110.38 47.68 112.55 54.16 114.73 22.5 116.9 42.42 119.07 53.79 121.25 61.76 123.42 52.35 125.59 45.37 127.77 44.82 129.94 36.56 132.12 45.69 134.29 27.74 136.46 22.34 138.63 37.82 140.81 48.15 142.98 30.39 145.16 43.87 147.33 37.88 149.5 45.38 151.68 67.89 153.85 33.19 156.02 21.71 158.2 61.21 160.37 42.88 162.54 38.84 164.72 12.75 166.89 49.52 169.06 55.16 171.24 59.96 173.41 38.08 175.59 56.23 177.76 33.38 179.93 44.62 182.11 41.67 184.28 38.52 186.45 61.53 188.63 29.05 190.8 45.2 192.97 49.75 195.15 47.49 197.32 36.62 199.5 19.5 201.67 59.26 203.84 46.13 206.02 16.45 208.19 54.05 210.36 17.43 212.54 17.91 214.71 16.44 216.89 46.74 219.06 51.23"/><line class="cls-6" x1="29.95" y1="179.8" x2="29.95" y2="178.01"/><line class="cls-7" x1="29.95" y1="182.12" x2="29.95" y2="181.68"/><line class="cls-8" x1="29.95" y1="174.77" x2="29.95" y2="171.19"/><line class="cls-9" x1="29.95" y1="89.61" x2="29.95" y2="36.05"/><line class="cls-6" x1="32.12" y1="181.31" x2="32.12" y2="179.12"/><line class="cls-7" x1="32.12" y1="182.21" x2="32.12" y2="181.34"/><line class="cls-8" x1="32.12" y1="170.82" x2="32.12" y2="164.43"/><line class="cls-9" x1="32.12" y1="60.4" x2="32.12" y2="15.19"/><line class="cls-6" x1="34.3" y1="180.41" x2="34.3" y2="178.69"/><line class="cls-7" x1="34.3" y1="182.22" x2="34.3" y2="181.26"/><line class="cls-8" x1="34.3" y1="175.67" x2="34.3" y2="167.14"/><line class="cls-9" x1="34.3" y1="78.43" x2="34.3" y2="27.05"/><line class="cls-6" x1="36.47" y1="180.39" x2="36.47" y2="178.42"/><line class="cls-7" x1="36.47" y1="182.07" x2="36.47" y2="181.13"/><line class="cls-8" x1="36.47" y1="169.7" x2="36.47" y2="164.42"/><line class="cls-9" x1="36.47" y1="54.71" x2="36.47" y2="11.1"/><line class="cls-6" x1="38.65" y1="177.82" x2="38.65" y2="174.89"/><line class="cls-7" x1="38.65" y1="181.73" x2="38.65" y2="181.11"/><line class="cls-8" x1="38.65" y1="171.87" x2="38.65" y2="166.84"/><line class="cls-9" x1="38.65" y1="107.21" x2="38.65" y2="54.8"/><line class="cls-6" x1="40.82" y1="179.98" x2="40.82" y2="177.7"/><line class="cls-7" x1="40.82" y1="181.81" x2="40.82" y2="180.99"/><line class="cls-8" x1="40.82" y1="173.77" x2="40.82" y2="168.67"/><line class="cls-9" x1="40.82" y1="65.3" x2="40.82" y2="18.02"/><line class="cls-6" x1="42.99" y1="179.21" x2="42.99" y2="176.36"/><line class="cls-7" x1="42.99" y1="181.94" x2="42.99" y2="180.62"/><line class="cls-8" x1="42.99" y1="170.02" x2="42.99" y2="164.15"/><line class="cls-9" x1="42.99" y1="64.65" x2="42.99" y2="16.95"/><line class="cls-6" x1="45.17" y1="178.48" x2="45.17" y2="175.75"/><line class="cls-7" x1="45.17" y1="181.82" x2="45.17" y2="180.63"/><line class="cls-8" x1="45.17" y1="170.34" x2="45.17" y2="161.93"/><line class="cls-9" x1="45.17" y1="76.62" x2="45.17" y2="25.87"/><line class="cls-6" x1="47.34" y1="177.68" x2="47.34" y2="174.57"/><line class="cls-7" x1="47.34" y1="181.61" x2="47.34" y2="180.71"/><line class="cls-8" x1="47.34" y1="172.78" x2="47.34" y2="168.04"/><line class="cls-9" x1="47.34" y1="79.05" x2="47.34" y2="27.27"/><line class="cls-6" x1="49.51" y1="178.09" x2="49.51" y2="175.27"/><line class="cls-7" x1="49.51" y1="181.75" x2="49.51" y2="180.09"/><line class="cls-8" x1="49.51" y1="165.11" x2="49.51" y2="153.08"/><line class="cls-9" x1="49.51" y1="79.83" x2="49.51" y2="31.03"/><line class="cls-6" x1="51.69" y1="175.03" x2="51.69" y2="170.84"/><line class="cls-7" x1="51.69" y1="181.35" x2="51.69" y2="180.22"/><line class="cls-8" x1="51.69" y1="169.15" x2="51.69" y2="163.41"/><line class="cls-9" x1="51.69" y1="103" x2="51.69" y2="48.11"/><line class="cls-6" x1="53.86" y1="176.62" x2="53.86" y2="172.93"/><line class="cls-7" x1="53.86" y1="181.27" x2="53.86" y2="180.15"/><line class="cls-8" x1="53.86" y1="172.74" x2="53.86" y2="167.12"/><line class="cls-9" x1="53.86" y1="75.76" x2="53.86" y2="25.34"/><line class="cls-6" x1="56.04" y1="177.42" x2="56.04" y2="173.64"/><line class="cls-7" x1="56.04" y1="181.23" x2="56.04" y2="180.08"/><line class="cls-8" x1="56.04" y1="171.04" x2="56.04" y2="165.23"/><line class="cls-9" x1="56.04" y1="39.18" x2="56.04" y2="7.28"/><line class="cls-6" x1="58.21" y1="176.72" x2="58.21" y2="170.96"/><line class="cls-7" x1="58.21" y1="181.29" x2="58.21" y2="179.89"/><line class="cls-8" x1="58.21" y1="168.84" x2="58.21" y2="160.49"/><line class="cls-9" x1="58.21" y1="76.28" x2="58.21" y2="25.99"/><line class="cls-6" x1="60.38" y1="178.42" x2="60.38" y2="175.08"/><line class="cls-7" x1="60.38" y1="181.3" x2="60.38" y2="179.73"/><line class="cls-8" x1="60.38" y1="173.58" x2="60.38" y2="168.45"/><line class="cls-9" x1="60.38" y1="46.03" x2="60.38" y2="8.24"/><line class="cls-6" x1="62.56" y1="176.11" x2="62.56" y2="172.05"/><line class="cls-7" x1="62.56" y1="181.33" x2="62.56" y2="179.46"/><line class="cls-8" x1="62.56" y1="169.49" x2="62.56" y2="158.42"/><line class="cls-9" x1="62.56" y1="74.2" x2="62.56" y2="24.97"/><line class="cls-6" x1="64.73" y1="176.79" x2="64.73" y2="172.69"/><line class="cls-7" x1="64.73" y1="181.05" x2="64.73" y2="179.46"/><line class="cls-8" x1="64.73" y1="166.37" x2="64.73" y2="157.14"/><line class="cls-9" x1="64.73" y1="93.88" x2="64.73" y2="40.91"/><line class="cls-6" x1="66.9" y1="175.39" x2="66.9" y2="171.47"/><line class="cls-7" x1="66.9" y1="180.94" x2="66.9" y2="179.54"/><line class="cls-8" x1="66.9" y1="168.44" x2="66.9" y2="162.83"/><line class="cls-9" x1="66.9" y1="81.92" x2="66.9" y2="29.69"/><line class="cls-6" x1="69.08" y1="175.33" x2="69.08" y2="171.07"/><line class="cls-7" x1="69.08" y1="180.79" x2="69.08" y2="179.06"/><line class="cls-8" x1="69.08" y1="170.59" x2="69.08" y2="160.93"/><line class="cls-9" x1="69.08" y1="76.61" x2="69.08" y2="25.73"/><line class="cls-6" x1="71.25" y1="176.71" x2="71.25" y2="172.47"/><line class="cls-7" x1="71.25" y1="180.73" x2="71.25" y2="178.93"/><line class="cls-8" x1="71.25" y1="168.84" x2="71.25" y2="159.21"/><line class="cls-9" x1="71.25" y1="59.78" x2="71.25" y2="15.86"/><line class="cls-6" x1="73.43" y1="174.86" x2="73.43" y2="170.5"/><line class="cls-7" x1="73.43" y1="180.62" x2="73.43" y2="178.88"/><line class="cls-8" x1="73.43" y1="167.78" x2="73.43" y2="158.64"/><line class="cls-9" x1="73.43" y1="73.66" x2="73.43" y2="23.74"/><line class="cls-6" x1="75.6" y1="174.47" x2="75.6" y2="168.4"/><line class="cls-7" x1="75.6" y1="180.49" x2="75.6" y2="178.77"/><line class="cls-8" x1="75.6" y1="166.19" x2="75.6" y2="156.1"/><line class="cls-9" x1="75.6" y1="85.22" x2="75.6" y2="33.65"/><line class="cls-6" x1="77.77" y1="173.9" x2="77.77" y2="169.64"/><line class="cls-7" x1="77.77" y1="180.54" x2="77.77" y2="178.67"/><line class="cls-8" x1="77.77" y1="167.64" x2="77.77" y2="161.67"/><line class="cls-9" x1="77.77" y1="79.63" x2="77.77" y2="28.07"/><line class="cls-6" x1="79.95" y1="177.36" x2="79.95" y2="173.36"/><line class="cls-7" x1="79.95" y1="180.59" x2="79.95" y2="178.57"/><line class="cls-8" x1="79.95" y1="171.05" x2="79.95" y2="163.87"/><line class="cls-9" x1="79.95" y1="56.67" x2="79.95" y2="13.67"/><line class="cls-6" x1="82.12" y1="172.32" x2="82.12" y2="164.82"/><line class="cls-7" x1="82.12" y1="180.46" x2="82.12" y2="178.53"/><line class="cls-8" x1="82.12" y1="160.51" x2="82.12" y2="151.74"/><line class="cls-9" x1="82.12" y1="95.31" x2="82.12" y2="43.59"/><line class="cls-6" x1="84.29" y1="175.72" x2="84.29" y2="171.88"/><line class="cls-7" x1="84.29" y1="180.44" x2="84.29" y2="178.36"/><line class="cls-8" x1="84.29" y1="163.21" x2="84.29" y2="154.95"/><line class="cls-9" x1="84.29" y1="69.84" x2="84.29" y2="23.45"/><line class="cls-6" x1="86.47" y1="175.29" x2="86.47" y2="170.77"/><line class="cls-7" x1="86.47" y1="180.16" x2="86.47" y2="178.09"/><line class="cls-8" x1="86.47" y1="166.33" x2="86.47" y2="155.76"/><line class="cls-9" x1="86.47" y1="67.78" x2="86.47" y2="20.14"/><line class="cls-6" x1="88.64" y1="174.15" x2="88.64" y2="169.69"/><line class="cls-7" x1="88.64" y1="180.18" x2="88.64" y2="178.06"/><line class="cls-8" x1="88.64" y1="166.87" x2="88.64" y2="157.24"/><line class="cls-9" x1="88.64" y1="84.39" x2="88.64" y2="31.69"/><line class="cls-6" x1="90.82" y1="175.94" x2="90.82" y2="171.7"/><line class="cls-7" x1="90.82" y1="180.14" x2="90.82" y2="177.91"/><line class="cls-8" x1="90.82" y1="170.13" x2="90.82" y2="161.37"/><line class="cls-9" x1="90.82" y1="65.65" x2="90.82" y2="18.89"/><line class="cls-6" x1="92.99" y1="174.54" x2="92.99" y2="170.26"/><line class="cls-7" x1="92.99" y1="180.05" x2="92.99" y2="177.86"/><line class="cls-8" x1="92.99" y1="167.63" x2="92.99" y2="158.14"/><line class="cls-9" x1="92.99" y1="71.39" x2="92.99" y2="22.65"/><line class="cls-6" x1="95.16" y1="175.99" x2="95.16" y2="171.53"/><line class="cls-7" x1="95.16" y1="179.94" x2="95.16" y2="177.52"/><line class="cls-8" x1="95.16" y1="170.83" x2="95.16" y2="162.16"/><line class="cls-9" x1="95.16" y1="58.85" x2="95.16" y2="14.93"/><line class="cls-6" x1="97.34" y1="176.11" x2="97.34" y2="171.83"/><line class="cls-7" x1="97.34" y1="179.9" x2="97.34" y2="177.3"/><line class="cls-8" x1="97.34" y1="170.16" x2="97.34" y2="160.98"/><line class="cls-9" x1="97.34" y1="54.97" x2="97.34" y2="13.48"/><line class="cls-6" x1="99.51" y1="173.84" x2="99.51" y2="169.35"/><line class="cls-7" x1="99.51" y1="179.53" x2="99.51" y2="177.22"/><line class="cls-8" x1="99.51" y1="168.7" x2="99.51" y2="159.24"/><line class="cls-9" x1="99.51" y1="59.78" x2="99.51" y2="15.86"/><line class="cls-6" x1="101.69" y1="173.94" x2="101.69" y2="169.15"/><line class="cls-7" x1="101.69" y1="179.54" x2="101.69" y2="177.18"/><line class="cls-8" x1="101.69" y1="166.62" x2="101.69" y2="156.87"/><line class="cls-9" x1="101.69" y1="101.49" x2="101.69" y2="46.94"/><line class="cls-6" x1="103.86" y1="173.61" x2="103.86" y2="168.99"/><line class="cls-7" x1="103.86" y1="179.07" x2="103.86" y2="176.6"/><line class="cls-8" x1="103.86" y1="167.16" x2="103.86" y2="157.21"/><line class="cls-9" x1="103.86" y1="73.31" x2="103.86" y2="23.66"/><line class="cls-6" x1="106.03" y1="173.82" x2="106.03" y2="169.4"/><line class="cls-7" x1="106.03" y1="179.01" x2="106.03" y2="176.48"/><line class="cls-8" x1="106.03" y1="167.9" x2="106.03" y2="158.94"/><line class="cls-9" x1="106.03" y1="49.81" x2="106.03" y2="11.16"/><line class="cls-6" x1="108.21" y1="173.42" x2="108.21" y2="168.76"/><line class="cls-7" x1="108.21" y1="178.96" x2="108.21" y2="176.43"/><line class="cls-8" x1="108.21" y1="167.16" x2="108.21" y2="157.8"/><line class="cls-9" x1="108.21" y1="97.18" x2="108.21" y2="43.29"/><line class="cls-6" x1="110.38" y1="173.09" x2="110.38" y2="168.83"/><line class="cls-7" x1="110.38" y1="178.88" x2="110.38" y2="176.16"/><line class="cls-8" x1="110.38" y1="168.51" x2="110.38" y2="160.16"/><line class="cls-9" x1="110.38" y1="72.18" x2="110.38" y2="23.17"/><line class="cls-6" x1="112.55" y1="174.19" x2="112.55" y2="169.81"/><line class="cls-7" x1="112.55" y1="179.04" x2="112.55" y2="175.97"/><line class="cls-8" x1="112.55" y1="164.51" x2="112.55" y2="153.46"/><line class="cls-9" x1="112.55" y1="79.59" x2="112.55" y2="28.73"/><line class="cls-6" x1="114.73" y1="174.79" x2="114.73" y2="170.26"/><line class="cls-7" x1="114.73" y1="179.24" x2="114.73" y2="175.5"/><line class="cls-8" x1="114.73" y1="164.33" x2="114.73" y2="154.31"/><line class="cls-9" x1="114.73" y1="37.33" x2="114.73" y2="7.66"/><line class="cls-6" x1="116.9" y1="172.51" x2="116.9" y2="168.23"/><line class="cls-7" x1="116.9" y1="178.6" x2="116.9" y2="176.11"/><line class="cls-8" x1="116.9" y1="167.07" x2="116.9" y2="161.22"/><line class="cls-9" x1="116.9" y1="65.3" x2="116.9" y2="19.55"/><line class="cls-6" x1="119.07" y1="174.43" x2="119.07" y2="170.28"/><line class="cls-7" x1="119.07" y1="178.91" x2="119.07" y2="175.52"/><line class="cls-8" x1="119.07" y1="165.09" x2="119.07" y2="153.82"/><line class="cls-9" x1="119.07" y1="79.27" x2="119.07" y2="28.32"/><line class="cls-6" x1="121.25" y1="173.27" x2="121.25" y2="168.71"/><line class="cls-7" x1="121.25" y1="178.48" x2="121.25" y2="175.79"/><line class="cls-8" x1="121.25" y1="166.68" x2="121.25" y2="157.48"/><line class="cls-9" x1="121.25" y1="88.65" x2="121.25" y2="34.87"/><line class="cls-6" x1="123.42" y1="174.32" x2="123.42" y2="170.1"/><line class="cls-7" x1="123.42" y1="178.61" x2="123.42" y2="175.56"/><line class="cls-8" x1="123.42" y1="164.26" x2="123.42" y2="153.54"/><line class="cls-9" x1="123.42" y1="77.89" x2="123.42" y2="26.81"/><line class="cls-6" x1="125.59" y1="172.75" x2="125.59" y2="167.95"/><line class="cls-7" x1="125.59" y1="178.54" x2="125.59" y2="175.62"/><line class="cls-8" x1="125.59" y1="163.7" x2="125.59" y2="150.29"/><line class="cls-9" x1="125.59" y1="68.57" x2="125.59" y2="22.16"/><line class="cls-6" x1="127.77" y1="173.69" x2="127.77" y2="168.85"/><line class="cls-7" x1="127.77" y1="178.5" x2="127.77" y2="175.51"/><line class="cls-8" x1="127.77" y1="161.11" x2="127.77" y2="145.27"/><line class="cls-9" x1="127.77" y1="66.87" x2="127.77" y2="22.78"/><line class="cls-6" x1="129.94" y1="173.44" x2="129.94" y2="169.04"/><line class="cls-7" x1="129.94" y1="178.51" x2="129.94" y2="175.13"/><line class="cls-8" x1="129.94" y1="166.18" x2="129.94" y2="155.02"/><line class="cls-9" x1="129.94" y1="58.31" x2="129.94" y2="14.82"/><line class="cls-6" x1="132.11" y1="172.83" x2="132.11" y2="167.97"/><line class="cls-7" x1="132.11" y1="178.43" x2="132.11" y2="175.16"/><line class="cls-8" x1="132.11" y1="164.5" x2="132.11" y2="151.67"/><line class="cls-9" x1="132.11" y1="69.28" x2="132.11" y2="22.1"/><line class="cls-6" x1="134.29" y1="173.7" x2="134.29" y2="168.71"/><line class="cls-7" x1="134.29" y1="177.95" x2="134.29" y2="175.32"/><line class="cls-8" x1="134.29" y1="158.2" x2="134.29" y2="145.93"/><line class="cls-9" x1="134.29" y1="44.31" x2="134.29" y2="11.17"/><line class="cls-6" x1="136.46" y1="172.97" x2="136.46" y2="167.98"/><line class="cls-7" x1="136.46" y1="178.18" x2="136.46" y2="174.81"/><line class="cls-8" x1="136.46" y1="162.17" x2="136.46" y2="151.48"/><line class="cls-9" x1="136.46" y1="36.99" x2="136.46" y2="7.69"/><line class="cls-6" x1="138.63" y1="173.57" x2="138.63" y2="169.39"/><line class="cls-7" x1="138.63" y1="178.01" x2="138.63" y2="174.87"/><line class="cls-8" x1="138.63" y1="168.87" x2="138.63" y2="159.74"/><line class="cls-9" x1="138.63" y1="59.78" x2="138.63" y2="15.86"/><line class="cls-6" x1="140.81" y1="175.28" x2="140.81" y2="170.78"/><line class="cls-7" x1="140.81" y1="178.16" x2="140.81" y2="174.62"/><line class="cls-8" x1="140.81" y1="166.26" x2="140.81" y2="155.28"/><line class="cls-9" x1="140.81" y1="72.98" x2="140.81" y2="23.32"/><line class="cls-6" x1="142.98" y1="172.96" x2="142.98" y2="168.29"/><line class="cls-7" x1="142.98" y1="178.02" x2="142.98" y2="174.54"/><line class="cls-8" x1="142.98" y1="159.05" x2="142.98" y2="147.89"/><line class="cls-9" x1="142.98" y1="48.25" x2="142.98" y2="12.53"/><line class="cls-6" x1="145.16" y1="172.64" x2="145.16" y2="167.63"/><line class="cls-7" x1="145.16" y1="177.98" x2="145.16" y2="174.2"/><line class="cls-8" x1="145.16" y1="162.64" x2="145.16" y2="148.43"/><line class="cls-9" x1="145.16" y1="66.72" x2="145.16" y2="21.01"/><line class="cls-6" x1="147.33" y1="173.77" x2="147.33" y2="169.22"/><line class="cls-7" x1="147.33" y1="177.64" x2="147.33" y2="174.47"/><line class="cls-8" x1="147.33" y1="162.3" x2="147.33" y2="151.05"/><line class="cls-9" x1="147.33" y1="56.57" x2="147.33" y2="19.18"/><line class="cls-6" x1="149.5" y1="171.53" x2="149.5" y2="167.26"/><line class="cls-7" x1="149.5" y1="177.56" x2="149.5" y2="174.47"/><line class="cls-8" x1="149.5" y1="167.11" x2="149.5" y2="161.36"/><line class="cls-9" x1="149.5" y1="68.91" x2="149.5" y2="21.86"/><line class="cls-6" x1="151.68" y1="171.27" x2="151.68" y2="166.95"/><line class="cls-7" x1="151.68" y1="177.41" x2="151.68" y2="174.43"/><line class="cls-8" x1="151.68" y1="166.73" x2="151.68" y2="158.82"/><line class="cls-9" x1="151.68" y1="94.76" x2="151.68" y2="41.01"/><line class="cls-6" x1="153.85" y1="173.41" x2="153.85" y2="168.27"/><line class="cls-7" x1="153.85" y1="177.33" x2="153.85" y2="174.34"/><line class="cls-8" x1="153.85" y1="160.36" x2="153.85" y2="148.32"/><line class="cls-9" x1="153.85" y1="51.05" x2="153.85" y2="15.33"/><line class="cls-6" x1="156.02" y1="170.9" x2="156.02" y2="165.63"/><line class="cls-7" x1="156.02" y1="177.32" x2="156.02" y2="174.19"/><line class="cls-8" x1="156.02" y1="166" x2="156.02" y2="158.42"/><line class="cls-9" x1="156.02" y1="35.55" x2="156.02" y2="7.87"/><line class="cls-6" x1="158.2" y1="174.94" x2="158.2" y2="170.63"/><line class="cls-7" x1="158.2" y1="177.87" x2="158.2" y2="173.63"/><line class="cls-8" x1="158.2" y1="158.84" x2="158.2" y2="147.69"/><line class="cls-9" x1="158.2" y1="86.71" x2="158.2" y2="35.71"/><line class="cls-6" x1="160.37" y1="172.46" x2="160.37" y2="167.98"/><line class="cls-7" x1="160.37" y1="177.51" x2="160.37" y2="173.55"/><line class="cls-8" x1="160.37" y1="165.65" x2="160.37" y2="154.48"/><line class="cls-9" x1="160.37" y1="66.47" x2="160.37" y2="19.29"/><line class="cls-6" x1="162.54" y1="172.06" x2="162.54" y2="167.02"/><line class="cls-7" x1="162.54" y1="177.27" x2="162.54" y2="173.71"/><line class="cls-8" x1="162.54" y1="166.23" x2="162.54" y2="152.83"/><line class="cls-9" x1="162.54" y1="60.54" x2="162.54" y2="17.13"/><line class="cls-6" x1="164.72" y1="170.78" x2="164.72" y2="164.54"/><line class="cls-7" x1="164.72" y1="176.94" x2="164.72" y2="173.45"/><line class="cls-8" x1="164.72" y1="168.57" x2="164.72" y2="163.44"/><line class="cls-9" x1="164.72" y1="15.61" x2="164.72" y2="9.89"/><line class="cls-6" x1="166.89" y1="172.32" x2="166.89" y2="167.29"/><line class="cls-7" x1="166.89" y1="177.09" x2="166.89" y2="173.25"/><line class="cls-8" x1="166.89" y1="160.49" x2="166.89" y2="146.88"/><line class="cls-9" x1="166.89" y1="72.95" x2="166.89" y2="26.09"/><line class="cls-6" x1="169.06" y1="172.35" x2="169.06" y2="167.15"/><line class="cls-7" x1="169.06" y1="176.3" x2="169.06" y2="172.78"/><line class="cls-8" x1="169.06" y1="166.71" x2="169.06" y2="158.36"/><line class="cls-9" x1="169.06" y1="81.11" x2="169.06" y2="29.22"/><line class="cls-6" x1="171.24" y1="170.92" x2="171.24" y2="165.82"/><line class="cls-7" x1="171.24" y1="175.97" x2="171.24" y2="172.21"/><line class="cls-8" x1="171.24" y1="144.93" x2="171.24" y2="124.71"/><line class="cls-9" x1="171.24" y1="86.16" x2="171.24" y2="33.76"/><line class="cls-6" x1="173.41" y1="171.53" x2="173.41" y2="166.87"/><line class="cls-7" x1="173.41" y1="175.75" x2="173.41" y2="171.64"/><line class="cls-8" x1="173.41" y1="168.01" x2="173.41" y2="157.2"/><line class="cls-9" x1="173.41" y1="59.74" x2="173.41" y2="16.4"/><line class="cls-6" x1="175.58" y1="172.59" x2="175.58" y2="167.72"/><line class="cls-7" x1="175.58" y1="174.47" x2="175.58" y2="170.23"/><line class="cls-8" x1="175.58" y1="165.04" x2="175.58" y2="152.89"/><line class="cls-9" x1="175.58" y1="82.96" x2="175.58" y2="29.49"/><line class="cls-6" x1="177.76" y1="170.71" x2="177.76" y2="165.25"/><line class="cls-7" x1="177.76" y1="174.17" x2="177.76" y2="169.93"/><line class="cls-8" x1="177.76" y1="166.53" x2="177.76" y2="152.95"/><line class="cls-9" x1="177.76" y1="53.2" x2="177.76" y2="13.56"/><line class="cls-6" x1="179.93" y1="169.62" x2="179.93" y2="165.15"/><line class="cls-7" x1="179.93" y1="173.93" x2="179.93" y2="169.81"/><line class="cls-8" x1="179.93" y1="155.6" x2="179.93" y2="142.26"/><line class="cls-9" x1="179.93" y1="67.28" x2="179.93" y2="21.95"/><line class="cls-6" x1="182.11" y1="170.4" x2="182.11" y2="164.75"/><line class="cls-7" x1="182.11" y1="173.47" x2="182.11" y2="169.39"/><line class="cls-8" x1="182.11" y1="158.34" x2="182.11" y2="141.13"/><line class="cls-9" x1="182.11" y1="63.42" x2="182.11" y2="19.92"/><line class="cls-6" x1="184.28" y1="171.27" x2="184.28" y2="166.35"/><line class="cls-7" x1="184.28" y1="171.96" x2="184.28" y2="166.92"/><line class="cls-8" x1="184.28" y1="166.73" x2="184.28" y2="156.72"/><line class="cls-9" x1="184.28" y1="60.86" x2="184.28" y2="16.17"/><line class="cls-6" x1="186.45" y1="173.58" x2="186.45" y2="169.61"/><line class="cls-7" x1="186.45" y1="172.04" x2="186.45" y2="164.83"/><line class="cls-8" x1="186.45" y1="159.16" x2="186.45" y2="148.79"/><line class="cls-9" x1="186.45" y1="87.44" x2="186.45" y2="35.62"/><line class="cls-6" x1="188.63" y1="168.81" x2="188.63" y2="163.3"/><line class="cls-7" x1="188.63" y1="171.3" x2="188.63" y2="165.18"/><line class="cls-8" x1="188.63" y1="170.08" x2="188.63" y2="145.18"/><line class="cls-9" x1="188.63" y1="46.63" x2="188.63" y2="11.46"/><line class="cls-6" x1="190.8" y1="171.93" x2="190.8" y2="166.42"/><line class="cls-7" x1="190.8" y1="170.46" x2="190.8" y2="163.99"/><line class="cls-8" x1="190.8" y1="155.86" x2="190.8" y2="141.75"/><line class="cls-9" x1="190.8" y1="67.8" x2="190.8" y2="22.6"/><line class="cls-6" x1="192.97" y1="170.73" x2="192.97" y2="165.27"/><line class="cls-7" x1="192.97" y1="169.89" x2="192.97" y2="163.51"/><line class="cls-8" x1="192.97" y1="153.93" x2="192.97" y2="141.52"/><line class="cls-9" x1="192.97" y1="71.95" x2="192.97" y2="27.55"/><line class="cls-6" x1="195.15" y1="171.17" x2="195.15" y2="166.27"/><line class="cls-7" x1="195.15" y1="170.03" x2="195.15" y2="163.26"/><line class="cls-8" x1="195.15" y1="149.44" x2="195.15" y2="132.23"/><line class="cls-9" x1="195.15" y1="71.14" x2="195.15" y2="23.84"/><line class="cls-6" x1="197.32" y1="171.82" x2="197.32" y2="167.14"/><line class="cls-7" x1="197.32" y1="169.86" x2="197.32" y2="163.31"/><line class="cls-8" x1="197.32" y1="156.6" x2="197.32" y2="144.11"/><line class="cls-9" x1="197.32" y1="57.13" x2="197.32" y2="16.11"/><line class="cls-6" x1="199.5" y1="171.54" x2="199.5" y2="166.32"/><line class="cls-7" x1="199.5" y1="170.18" x2="199.5" y2="162.71"/><line class="cls-8" x1="199.5" y1="166.45" x2="199.5" y2="157.69"/><line class="cls-9" x1="199.5" y1="31.87" x2="199.5" y2="7.13"/><line class="cls-6" x1="201.67" y1="174.33" x2="201.67" y2="167.88"/><line class="cls-7" x1="201.67" y1="170.12" x2="201.67" y2="161.9"/><line class="cls-8" x1="201.67" y1="152.29" x2="201.67" y2="139.2"/><line class="cls-9" x1="201.67" y1="84.92" x2="201.67" y2="33.59"/><line class="cls-6" x1="203.84" y1="173.11" x2="203.84" y2="167.63"/><line class="cls-7" x1="203.84" y1="170.16" x2="203.84" y2="161.81"/><line class="cls-8" x1="203.84" y1="155.62" x2="203.84" y2="140.16"/><line class="cls-9" x1="203.84" y1="69.35" x2="203.84" y2="22.91"/><line class="cls-6" x1="206.02" y1="170.9" x2="206.02" y2="166.49"/><line class="cls-7" x1="206.02" y1="169.1" x2="206.02" y2="162.1"/><line class="cls-8" x1="206.02" y1="167.53" x2="206.02" y2="160.29"/><line class="cls-9" x1="206.02" y1="26.07" x2="206.02" y2="6.84"/><line class="cls-6" x1="208.19" y1="173.52" x2="208.19" y2="167.46"/><line class="cls-7" x1="208.19" y1="169.81" x2="208.19" y2="161.32"/><line class="cls-8" x1="208.19" y1="152.05" x2="208.19" y2="136.11"/><line class="cls-9" x1="208.19" y1="78.33" x2="208.19" y2="29.77"/><line class="cls-6" x1="210.36" y1="170.69" x2="210.36" y2="165.98"/><line class="cls-7" x1="210.36" y1="168.98" x2="210.36" y2="161.92"/><line class="cls-8" x1="210.36" y1="167.4" x2="210.36" y2="160.1"/><line class="cls-9" x1="210.36" y1="27.76" x2="210.36" y2="7.11"/><line class="cls-6" x1="212.54" y1="172.11" x2="212.54" y2="167.19"/><line class="cls-7" x1="212.54" y1="169.7" x2="212.54" y2="161.02"/><line class="cls-8" x1="212.54" y1="167.24" x2="212.54" y2="158.7"/><line class="cls-9" x1="212.54" y1="29.31" x2="212.54" y2="6.52"/><line class="cls-6" x1="214.71" y1="170.86" x2="214.71" y2="166.74"/><line class="cls-7" x1="214.71" y1="168.76" x2="214.71" y2="161.91"/><line class="cls-8" x1="214.71" y1="166.65" x2="214.71" y2="158.96"/><line class="cls-9" x1="214.71" y1="25.25" x2="214.71" y2="7.62"/><line class="cls-6" x1="216.89" y1="173.59" x2="216.89" y2="167.05"/><line class="cls-7" x1="216.89" y1="169.21" x2="216.89" y2="159.87"/><line class="cls-8" x1="216.89" y1="152.3" x2="216.89" y2="135.65"/><line class="cls-9" x1="216.89" y1="70.09" x2="216.89" y2="23.39"/><line class="cls-6" x1="219.06" y1="173.37" x2="219.06" y2="166.63"/><line class="cls-7" x1="219.06" y1="168.89" x2="219.06" y2="157.98"/><line class="cls-8" x1="219.06" y1="150.96" x2="219.06" y2="134.2"/><line class="cls-9" x1="219.06" y1="74.87" x2="219.06" y2="27.6"/></g><line class="cls-2" x1="240.81" y1="8.75" x2="239.19" y2="8.75"/><line class="cls-2" x1="240.81" y1="56.81" x2="240.81" y2="8.75"/><line class="cls-2" x1="240.81" y1="56.81" x2="239.19" y2="56.81"/><line class="cls-2" x1="240.81" y1="44.8" x2="239.19" y2="44.8"/><line class="cls-2" x1="240.81" y1="32.78" x2="239.19" y2="32.78"/><line class="cls-2" x1="240.81" y1="20.77" x2="239.19" y2="20.77"/><polyline class="cls-2" points="240.81 58.97 334.19 58.97 334.19 0.58 240.81 0.58 240.81 58.97"/><g class="cls-10"><polyline class="cls-6" points="244.27 51.71 247.25 55.73 250.23 55.74 253.21 55.26 256.19 54.76 259.17 49.33 262.15 49.53 265.14 48.78 268.12 48.99 271.1 47.6 274.08 46.94 277.06 49.61 280.04 51.67 283.02 49.05 286.01 47.69 288.99 44.94 291.97 47.04 294.95 43.84 297.93 48.86 300.91 47.4 303.89 50.42 306.88 44.01 309.86 46.7 312.84 45.91 315.82 43.94 318.8 44.99 321.79 43.93 324.77 45.88 327.75 45.37 330.73 49.44"/><polyline class="cls-7" points="244.27 55.87 247.25 45.96 250.23 47.86 253.21 46.28 256.19 48.24 259.17 53.73 262.15 55.11 265.14 54.32 268.12 54.68 271.1 54.43 274.08 54.72 277.06 54.16 280.04 52.98 283.02 53.81 286.01 54.19 288.99 54.53 291.97 53.87 294.95 54.43 297.93 54.79 300.91 53.76 303.89 53.17 306.88 54.21 309.86 53.62 312.84 53.5 315.82 53.87 318.8 54.05 321.79 53.57 324.77 53.05 327.75 53.11 330.73 49.49"/><polyline class="cls-8" points="244.27 40.91 247.25 49.58 250.23 43.64 253.21 46.88 256.19 47.75 259.17 43.3 262.15 36.61 265.14 40.71 268.12 37.63 271.1 39.95 274.08 39.47 277.06 39.95 280.04 42.01 283.02 40.95 286.01 37.14 288.99 36.27 291.97 36.82 294.95 34.95 297.93 36.35 300.91 38.98 303.89 38.99 306.88 35.39 309.86 38.4 312.84 37.21 315.82 35.18 318.8 35.48 321.79 35.68 324.77 37.78 327.75 33.68 330.73 36.3"/><line class="cls-6" x1="244.27" y1="53.04" x2="244.27" y2="50.38"/><line class="cls-7" x1="244.27" y1="56.02" x2="244.27" y2="55.73"/><line class="cls-8" x1="244.27" y1="43.21" x2="244.27" y2="38.61"/><line class="cls-6" x1="247.25" y1="56.43" x2="247.25" y2="55.03"/><line class="cls-7" x1="247.25" y1="48.14" x2="247.25" y2="43.78"/><line class="cls-8" x1="247.25" y1="50.92" x2="247.25" y2="48.25"/><line class="cls-6" x1="250.23" y1="55.97" x2="250.23" y2="55.51"/><line class="cls-7" x1="250.23" y1="49.29" x2="250.23" y2="46.43"/><line class="cls-8" x1="250.23" y1="45.9" x2="250.23" y2="41.38"/><line class="cls-6" x1="253.21" y1="56.1" x2="253.21" y2="54.43"/><line class="cls-7" x1="253.21" y1="48.09" x2="253.21" y2="44.46"/><line class="cls-8" x1="253.21" y1="48.85" x2="253.21" y2="44.9"/><line class="cls-6" x1="256.19" y1="55.41" x2="256.19" y2="54.12"/><line class="cls-7" x1="256.19" y1="50.63" x2="256.19" y2="45.85"/><line class="cls-8" x1="256.19" y1="49.61" x2="256.19" y2="45.9"/><line class="cls-6" x1="259.17" y1="50.7" x2="259.17" y2="47.95"/><line class="cls-7" x1="259.17" y1="56.19" x2="259.17" y2="51.26"/><line class="cls-8" x1="259.17" y1="45.45" x2="259.17" y2="41.14"/><line class="cls-6" x1="262.16" y1="51" x2="262.16" y2="48.06"/><line class="cls-7" x1="262.16" y1="55.94" x2="262.16" y2="54.28"/><line class="cls-8" x1="262.16" y1="39.43" x2="262.16" y2="33.78"/><line class="cls-6" x1="265.14" y1="50.45" x2="265.14" y2="47.12"/><line class="cls-7" x1="265.14" y1="55.82" x2="265.14" y2="52.83"/><line class="cls-8" x1="265.14" y1="44.02" x2="265.14" y2="37.39"/><line class="cls-6" x1="268.12" y1="50.59" x2="268.12" y2="47.4"/><line class="cls-7" x1="268.12" y1="55.85" x2="268.12" y2="53.51"/><line class="cls-8" x1="268.12" y1="40.93" x2="268.12" y2="34.32"/><line class="cls-6" x1="271.1" y1="49.39" x2="271.1" y2="45.82"/><line class="cls-7" x1="271.1" y1="55.41" x2="271.1" y2="53.45"/><line class="cls-8" x1="271.1" y1="43.28" x2="271.1" y2="36.63"/><line class="cls-6" x1="274.08" y1="48.72" x2="274.08" y2="45.16"/><line class="cls-7" x1="274.08" y1="55.52" x2="274.08" y2="53.93"/><line class="cls-8" x1="274.08" y1="42.57" x2="274.08" y2="36.38"/><line class="cls-6" x1="277.06" y1="51.39" x2="277.06" y2="47.83"/><line class="cls-7" x1="277.06" y1="55.41" x2="277.06" y2="52.91"/><line class="cls-8" x1="277.06" y1="43.18" x2="277.06" y2="36.73"/><line class="cls-6" x1="280.04" y1="52.7" x2="280.04" y2="50.63"/><line class="cls-7" x1="280.04" y1="55.06" x2="280.04" y2="50.91"/><line class="cls-8" x1="280.04" y1="43.8" x2="280.04" y2="40.22"/><line class="cls-6" x1="283.03" y1="50.9" x2="283.03" y2="47.2"/><line class="cls-7" x1="283.03" y1="55.26" x2="283.03" y2="52.37"/><line class="cls-8" x1="283.03" y1="43.77" x2="283.03" y2="38.14"/><line class="cls-6" x1="286.01" y1="49.34" x2="286.01" y2="46.03"/><line class="cls-7" x1="286.01" y1="55.79" x2="286.01" y2="52.59"/><line class="cls-8" x1="286.01" y1="39.87" x2="286.01" y2="34.41"/><line class="cls-6" x1="288.99" y1="47.39" x2="288.99" y2="42.49"/><line class="cls-7" x1="288.99" y1="55.37" x2="288.99" y2="53.68"/><line class="cls-8" x1="288.99" y1="40.09" x2="288.99" y2="32.45"/><line class="cls-6" x1="291.97" y1="48.97" x2="291.97" y2="45.11"/><line class="cls-7" x1="291.97" y1="54.98" x2="291.97" y2="52.76"/><line class="cls-8" x1="291.97" y1="40.1" x2="291.97" y2="33.55"/><line class="cls-6" x1="294.95" y1="46.62" x2="294.95" y2="41.06"/><line class="cls-7" x1="294.95" y1="55.26" x2="294.95" y2="53.59"/><line class="cls-8" x1="294.95" y1="39.06" x2="294.95" y2="30.84"/><line class="cls-6" x1="297.93" y1="49.76" x2="297.93" y2="47.96"/><line class="cls-7" x1="297.93" y1="55.09" x2="297.93" y2="54.5"/><line class="cls-8" x1="297.93" y1="38.26" x2="297.93" y2="34.44"/><line class="cls-6" x1="300.91" y1="49.5" x2="300.91" y2="45.29"/><line class="cls-7" x1="300.91" y1="55.34" x2="300.91" y2="52.19"/><line class="cls-8" x1="300.91" y1="42.44" x2="300.91" y2="35.51"/><line class="cls-6" x1="303.9" y1="51.88" x2="303.9" y2="48.96"/><line class="cls-7" x1="303.9" y1="54.36" x2="303.9" y2="51.98"/><line class="cls-8" x1="303.9" y1="41.96" x2="303.9" y2="36.03"/><line class="cls-6" x1="306.88" y1="46.83" x2="306.88" y2="41.19"/><line class="cls-7" x1="306.88" y1="55.14" x2="306.88" y2="53.29"/><line class="cls-8" x1="306.88" y1="39.46" x2="306.88" y2="31.32"/><line class="cls-6" x1="309.86" y1="48.85" x2="309.86" y2="44.56"/><line class="cls-7" x1="309.86" y1="54.73" x2="309.86" y2="52.5"/><line class="cls-8" x1="309.86" y1="41.87" x2="309.86" y2="34.93"/><line class="cls-6" x1="312.84" y1="48.1" x2="312.84" y2="43.73"/><line class="cls-7" x1="312.84" y1="54.7" x2="312.84" y2="52.29"/><line class="cls-8" x1="312.84" y1="40.71" x2="312.84" y2="33.71"/><line class="cls-6" x1="315.82" y1="46.72" x2="315.82" y2="41.17"/><line class="cls-7" x1="315.82" y1="55.17" x2="315.82" y2="52.57"/><line class="cls-8" x1="315.82" y1="39.43" x2="315.82" y2="30.93"/><line class="cls-6" x1="318.8" y1="47" x2="318.8" y2="42.98"/><line class="cls-7" x1="318.8" y1="55.22" x2="318.8" y2="52.88"/><line class="cls-8" x1="318.8" y1="39.11" x2="318.8" y2="31.84"/><line class="cls-6" x1="321.78" y1="46.56" x2="321.78" y2="41.29"/><line class="cls-7" x1="321.78" y1="54.88" x2="321.78" y2="52.27"/><line class="cls-8" x1="321.78" y1="39.65" x2="321.78" y2="31.71"/><line class="cls-6" x1="324.77" y1="48.07" x2="324.77" y2="43.68"/><line class="cls-7" x1="324.77" y1="54.34" x2="324.77" y2="51.75"/><line class="cls-8" x1="324.77" y1="41.16" x2="324.77" y2="34.4"/><line class="cls-6" x1="327.75" y1="47.41" x2="327.75" y2="43.33"/><line class="cls-7" x1="327.75" y1="54.84" x2="327.75" y2="51.38"/><line class="cls-8" x1="327.75" y1="37.54" x2="327.75" y2="29.81"/><line class="cls-6" x1="330.73" y1="51.03" x2="330.73" y2="47.85"/><line class="cls-7" x1="330.73" y1="51.59" x2="330.73" y2="47.39"/><line class="cls-8" x1="330.73" y1="39.67" x2="330.73" y2="32.93"/></g><line class="cls-2" x1="240.81" y1="122.55" x2="240.81" y2="74.48"/><line class="cls-2" x1="240.81" y1="122.55" x2="239.19" y2="122.55"/><line class="cls-2" x1="240.81" y1="110.53" x2="239.19" y2="110.53"/><line class="cls-2" x1="240.81" y1="98.51" x2="239.19" y2="98.51"/><line class="cls-2" x1="240.81" y1="86.5" x2="239.19" y2="86.5"/><line class="cls-2" x1="240.81" y1="74.48" x2="239.19" y2="74.48"/><polyline class="cls-2" points="240.81 124.71 334.19 124.71 334.19 66.31 240.81 66.31 240.81 124.71"/><g class="cls-11"><polyline class="cls-6" points="244.27 119.17 247.25 119.75 250.23 119.6 253.21 119.64 256.19 118.73 259.17 116.68 262.15 116 265.14 116.09 268.12 116.48 271.1 115.76 274.08 115.23 277.06 116.47 280.04 118.34 283.02 117.19 286.01 116.13 288.99 114.29 291.97 114.54 294.95 113.56 297.93 116.97 300.91 116.08 303.9 117.04 306.88 113.07 309.86 114.48 312.84 113.79 315.82 112.12 318.8 114.19 321.79 111.85 324.77 113.65 327.75 111.34 330.73 113.67"/><polyline class="cls-7" points="244.27 121.97 247.25 121.81 250.23 121.93 253.21 121.74 256.19 121.57 259.17 121.09 262.15 121.06 265.14 121.09 268.12 120.88 271.1 120.74 274.08 120.64 277.06 120.58 280.04 119.21 283.02 120.4 286.01 120.25 288.99 120.19 291.97 120.38 294.95 119.89 297.93 119.93 300.91 119.97 303.9 119.76 306.88 119.6 309.86 119.88 312.84 119.64 315.82 119.67 318.8 119.34 321.79 119.56 324.77 119.56 327.75 119.4 330.73 119.53"/><polyline class="cls-8" points="244.27 115.1 247.25 115.41 250.23 115.71 253.21 110.67 256.19 113.47 259.17 111.27 262.15 111.01 265.14 111.77 268.12 109.17 271.1 112.22 274.08 110.46 277.06 111.26 280.04 106.86 283.02 112.44 286.01 105.62 288.99 109.11 291.97 109.07 294.95 109.14 297.93 103.42 300.91 112.42 303.9 104.5 306.88 108.49 309.86 110.59 312.84 108.93 315.82 104.84 318.8 108.85 321.79 106.23 324.77 110.04 327.75 103.69 330.73 104.74"/><line class="cls-6" x1="244.27" y1="119.79" x2="244.27" y2="118.54"/><line class="cls-7" x1="244.27" y1="122.12" x2="244.27" y2="121.82"/><line class="cls-8" x1="244.27" y1="116.37" x2="244.27" y2="113.83"/><line class="cls-6" x1="247.25" y1="120.44" x2="247.25" y2="119.06"/><line class="cls-7" x1="247.25" y1="122.22" x2="247.25" y2="121.41"/><line class="cls-8" x1="247.25" y1="116.9" x2="247.25" y2="113.92"/><line class="cls-6" x1="250.23" y1="120.24" x2="250.23" y2="118.95"/><line class="cls-7" x1="250.23" y1="122.2" x2="250.23" y2="121.67"/><line class="cls-8" x1="250.23" y1="117.42" x2="250.23" y2="114"/><line class="cls-6" x1="253.21" y1="120.26" x2="253.21" y2="119.03"/><line class="cls-7" x1="253.21" y1="122.04" x2="253.21" y2="121.44"/><line class="cls-8" x1="253.21" y1="112.08" x2="253.21" y2="109.25"/><line class="cls-6" x1="256.19" y1="119.62" x2="256.19" y2="117.84"/><line class="cls-7" x1="256.19" y1="121.9" x2="256.19" y2="121.23"/><line class="cls-8" x1="256.19" y1="115.28" x2="256.19" y2="111.65"/><line class="cls-6" x1="259.17" y1="118.03" x2="259.17" y2="115.32"/><line class="cls-7" x1="259.17" y1="121.51" x2="259.17" y2="120.67"/><line class="cls-8" x1="259.17" y1="113.41" x2="259.17" y2="109.12"/><line class="cls-6" x1="262.16" y1="118.04" x2="262.16" y2="113.95"/><line class="cls-7" x1="262.16" y1="121.5" x2="262.16" y2="120.62"/><line class="cls-8" x1="262.16" y1="113.52" x2="262.16" y2="108.5"/><line class="cls-6" x1="265.14" y1="117.46" x2="265.14" y2="114.73"/><line class="cls-7" x1="265.14" y1="121.68" x2="265.14" y2="120.5"/><line class="cls-8" x1="265.14" y1="114.42" x2="265.14" y2="109.11"/><line class="cls-6" x1="268.12" y1="117.83" x2="268.12" y2="115.13"/><line class="cls-7" x1="268.12" y1="121.37" x2="268.12" y2="120.39"/><line class="cls-8" x1="268.12" y1="111.97" x2="268.12" y2="106.38"/><line class="cls-6" x1="271.1" y1="117.17" x2="271.1" y2="114.35"/><line class="cls-7" x1="271.1" y1="121.28" x2="271.1" y2="120.2"/><line class="cls-8" x1="271.1" y1="114.89" x2="271.1" y2="109.56"/><line class="cls-6" x1="274.08" y1="116.74" x2="274.08" y2="113.72"/><line class="cls-7" x1="274.08" y1="121.21" x2="274.08" y2="120.07"/><line class="cls-8" x1="274.08" y1="112.96" x2="274.08" y2="107.96"/><line class="cls-6" x1="277.06" y1="117.95" x2="277.06" y2="114.99"/><line class="cls-7" x1="277.06" y1="121.16" x2="277.06" y2="119.99"/><line class="cls-8" x1="277.06" y1="113.83" x2="277.06" y2="108.7"/><line class="cls-6" x1="280.04" y1="119.39" x2="280.04" y2="117.29"/><line class="cls-7" x1="280.04" y1="120.7" x2="280.04" y2="117.72"/><line class="cls-8" x1="280.04" y1="109.12" x2="280.04" y2="104.6"/><line class="cls-6" x1="283.03" y1="118.46" x2="283.03" y2="115.92"/><line class="cls-7" x1="283.03" y1="121.03" x2="283.03" y2="119.78"/><line class="cls-8" x1="283.03" y1="114.7" x2="283.03" y2="110.17"/><line class="cls-6" x1="286.01" y1="117.4" x2="286.01" y2="114.86"/><line class="cls-7" x1="286.01" y1="120.93" x2="286.01" y2="119.56"/><line class="cls-8" x1="286.01" y1="108.39" x2="286.01" y2="102.84"/><line class="cls-6" x1="288.99" y1="116.2" x2="288.99" y2="112.39"/><line class="cls-7" x1="288.99" y1="120.81" x2="288.99" y2="119.56"/><line class="cls-8" x1="288.99" y1="111.96" x2="288.99" y2="106.27"/><line class="cls-6" x1="291.97" y1="116.16" x2="291.97" y2="112.92"/><line class="cls-7" x1="291.97" y1="120.95" x2="291.97" y2="119.81"/><line class="cls-8" x1="291.97" y1="112.17" x2="291.97" y2="105.96"/><line class="cls-6" x1="294.95" y1="115.53" x2="294.95" y2="111.59"/><line class="cls-7" x1="294.95" y1="120.63" x2="294.95" y2="119.15"/><line class="cls-8" x1="294.95" y1="112.07" x2="294.95" y2="106.21"/><line class="cls-6" x1="297.93" y1="117.96" x2="297.93" y2="115.97"/><line class="cls-7" x1="297.93" y1="120.45" x2="297.93" y2="119.4"/><line class="cls-8" x1="297.93" y1="106.57" x2="297.93" y2="100.27"/><line class="cls-6" x1="300.91" y1="117.68" x2="300.91" y2="114.49"/><line class="cls-7" x1="300.91" y1="120.69" x2="300.91" y2="119.25"/><line class="cls-8" x1="300.91" y1="114.83" x2="300.91" y2="110.02"/><line class="cls-6" x1="303.9" y1="118.38" x2="303.9" y2="115.7"/><line class="cls-7" x1="303.9" y1="120.56" x2="303.9" y2="118.96"/><line class="cls-8" x1="303.9" y1="107.98" x2="303.9" y2="101.02"/><line class="cls-6" x1="306.88" y1="115.13" x2="306.88" y2="111"/><line class="cls-7" x1="306.88" y1="120.43" x2="306.88" y2="118.78"/><line class="cls-8" x1="306.88" y1="111.51" x2="306.88" y2="105.47"/><line class="cls-6" x1="309.86" y1="116.11" x2="309.86" y2="112.85"/><line class="cls-7" x1="309.86" y1="120.55" x2="309.86" y2="119.2"/><line class="cls-8" x1="309.86" y1="113.39" x2="309.86" y2="107.78"/><line class="cls-6" x1="312.84" y1="115.69" x2="312.84" y2="111.89"/><line class="cls-7" x1="312.84" y1="120.39" x2="312.84" y2="118.9"/><line class="cls-8" x1="312.84" y1="111.99" x2="312.84" y2="105.88"/><line class="cls-6" x1="315.82" y1="114.69" x2="315.82" y2="109.54"/><line class="cls-7" x1="315.82" y1="120.57" x2="315.82" y2="118.77"/><line class="cls-8" x1="315.82" y1="109.03" x2="315.82" y2="100.64"/><line class="cls-6" x1="318.8" y1="115.93" x2="318.8" y2="112.45"/><line class="cls-7" x1="318.8" y1="120.19" x2="318.8" y2="118.5"/><line class="cls-8" x1="318.8" y1="112.03" x2="318.8" y2="105.68"/><line class="cls-6" x1="321.78" y1="114.24" x2="321.78" y2="109.46"/><line class="cls-7" x1="321.78" y1="120.39" x2="321.78" y2="118.73"/><line class="cls-8" x1="321.78" y1="109.84" x2="321.78" y2="102.62"/><line class="cls-6" x1="324.77" y1="115.37" x2="324.77" y2="111.94"/><line class="cls-7" x1="324.77" y1="120.29" x2="324.77" y2="118.82"/><line class="cls-8" x1="324.77" y1="112.79" x2="324.77" y2="107.28"/><line class="cls-6" x1="327.75" y1="114.01" x2="327.75" y2="108.67"/><line class="cls-7" x1="327.75" y1="120.33" x2="327.75" y2="118.46"/><line class="cls-8" x1="327.75" y1="107.22" x2="327.75" y2="100.17"/><line class="cls-6" x1="330.73" y1="116" x2="330.73" y2="111.34"/><line class="cls-7" x1="330.73" y1="120.51" x2="330.73" y2="118.54"/><line class="cls-8" x1="330.73" y1="108.22" x2="330.73" y2="101.25"/></g><line class="cls-2" x1="240.81" y1="189.56" x2="240.81" y2="141.5"/><line class="cls-2" x1="240.81" y1="189.56" x2="239.19" y2="189.56"/><line class="cls-2" x1="240.81" y1="177.54" x2="239.19" y2="177.54"/><line class="cls-2" x1="240.81" y1="165.53" x2="239.19" y2="165.53"/><line class="cls-2" x1="240.81" y1="153.51" x2="239.19" y2="153.51"/><line class="cls-2" x1="240.81" y1="141.5" x2="239.19" y2="141.5"/><polyline class="cls-2" points="240.81 191.72 334.19 191.72 334.19 133.32 240.81 133.32 240.81 191.72"/><g class="cls-12"><polyline class="cls-6" points="244.27 187.44 247.25 187.97 250.23 187.58 253.21 187.73 256.19 187.37 259.17 185.92 262.15 185.84 265.14 185.55 268.12 185.64 271.1 185.06 274.08 184.37 277.06 185.44 280.04 186.21 283.02 185.93 286.01 185.1 288.99 183.87 291.97 184.52 294.95 183.11 297.93 185.35 300.91 184.58 303.9 184.75 306.88 183 309.86 183.64 312.84 183.14 315.82 182.99 318.8 183.67 321.79 181.99 324.77 182.8 327.75 182.08 330.73 183.29"/><polyline class="cls-7" points="244.27 188.95 247.25 188.9 250.23 188.87 253.21 188.79 256.19 188.65 259.17 188.13 262.15 188.16 265.14 187.54 268.12 187.87 271.1 187.42 274.08 187.34 277.06 187.57 280.04 187.69 283.02 187.52 286.01 187.44 288.99 186.9 291.97 186.85 294.95 186.61 297.93 187.5 300.91 186.63 303.9 187.12 306.88 186.23 309.86 186.59 312.84 186.16 315.82 185.59 318.8 186.28 321.79 185.63 324.77 186.09 327.75 186.21 330.73 186.6"/><polyline class="cls-8" points="244.27 183.41 247.25 178.67 250.23 181.5 253.21 179.69 256.19 182.16 259.17 181.37 262.15 178.13 265.14 170.64 268.12 174.81 271.1 173.8 274.08 172.69 277.06 173.53 280.04 176.49 283.02 179.87 286.01 177.46 288.99 175.17 291.97 174.4 294.95 176.9 297.93 172.44 300.91 175.71 303.9 175.58 306.88 176.63 309.86 174.06 312.84 172.99 315.82 163.66 318.8 178.33 321.79 169.74 324.77 177.02 327.75 174.04 330.73 175.56"/><line class="cls-6" x1="244.27" y1="187.88" x2="244.27" y2="187"/><line class="cls-7" x1="244.27" y1="189.1" x2="244.27" y2="188.81"/><line class="cls-8" x1="244.27" y1="184.5" x2="244.27" y2="182.32"/><line class="cls-6" x1="247.25" y1="188.7" x2="247.25" y2="187.24"/><line class="cls-7" x1="247.25" y1="189.08" x2="247.25" y2="188.71"/><line class="cls-8" x1="247.25" y1="180.84" x2="247.25" y2="176.5"/><line class="cls-6" x1="250.23" y1="188.1" x2="250.23" y2="187.06"/><line class="cls-7" x1="250.23" y1="189.05" x2="250.23" y2="188.68"/><line class="cls-8" x1="250.23" y1="184.7" x2="250.23" y2="178.31"/><line class="cls-6" x1="253.21" y1="188.35" x2="253.21" y2="187.11"/><line class="cls-7" x1="253.21" y1="188.98" x2="253.21" y2="188.61"/><line class="cls-8" x1="253.21" y1="181.64" x2="253.21" y2="177.73"/><line class="cls-6" x1="256.19" y1="187.94" x2="256.19" y2="186.79"/><line class="cls-7" x1="256.19" y1="188.86" x2="256.19" y2="188.44"/><line class="cls-8" x1="256.19" y1="183.82" x2="256.19" y2="180.51"/><line class="cls-6" x1="259.17" y1="186.76" x2="259.17" y2="185.09"/><line class="cls-7" x1="259.17" y1="188.44" x2="259.17" y2="187.83"/><line class="cls-8" x1="259.17" y1="182.63" x2="259.17" y2="180.11"/><line class="cls-6" x1="262.16" y1="187.19" x2="262.16" y2="184.49"/><line class="cls-7" x1="262.16" y1="188.48" x2="262.16" y2="187.84"/><line class="cls-8" x1="262.16" y1="180.57" x2="262.16" y2="175.68"/><line class="cls-6" x1="265.14" y1="186.4" x2="265.14" y2="184.71"/><line class="cls-7" x1="265.14" y1="187.97" x2="265.14" y2="187.12"/><line class="cls-8" x1="265.14" y1="175.63" x2="265.14" y2="165.65"/><line class="cls-6" x1="268.12" y1="186.62" x2="268.12" y2="184.66"/><line class="cls-7" x1="268.12" y1="188.16" x2="268.12" y2="187.57"/><line class="cls-8" x1="268.12" y1="178.18" x2="268.12" y2="171.44"/><line class="cls-6" x1="271.1" y1="186.1" x2="271.1" y2="184.02"/><line class="cls-7" x1="271.1" y1="187.83" x2="271.1" y2="187"/><line class="cls-8" x1="271.1" y1="178.23" x2="271.1" y2="169.37"/><line class="cls-6" x1="274.08" y1="185.56" x2="274.08" y2="183.17"/><line class="cls-7" x1="274.08" y1="187.79" x2="274.08" y2="186.9"/><line class="cls-8" x1="274.08" y1="176.68" x2="274.08" y2="168.7"/><line class="cls-6" x1="277.06" y1="186.4" x2="277.06" y2="184.48"/><line class="cls-7" x1="277.06" y1="188.03" x2="277.06" y2="187.11"/><line class="cls-8" x1="277.06" y1="177.65" x2="277.06" y2="169.4"/><line class="cls-6" x1="280.04" y1="187.02" x2="280.04" y2="185.4"/><line class="cls-7" x1="280.04" y1="188.01" x2="280.04" y2="187.37"/><line class="cls-8" x1="280.04" y1="178.68" x2="280.04" y2="174.31"/><line class="cls-6" x1="283.03" y1="186.86" x2="283.03" y2="185"/><line class="cls-7" x1="283.03" y1="187.86" x2="283.03" y2="187.18"/><line class="cls-8" x1="283.03" y1="182.11" x2="283.03" y2="177.63"/><line class="cls-6" x1="286.01" y1="186.22" x2="286.01" y2="183.99"/><line class="cls-7" x1="286.01" y1="187.86" x2="286.01" y2="187.02"/><line class="cls-8" x1="286.01" y1="179.55" x2="286.01" y2="175.36"/><line class="cls-6" x1="288.99" y1="185.2" x2="288.99" y2="182.54"/><line class="cls-7" x1="288.99" y1="187.36" x2="288.99" y2="186.45"/><line class="cls-8" x1="288.99" y1="179.2" x2="288.99" y2="171.14"/><line class="cls-6" x1="291.97" y1="185.57" x2="291.97" y2="183.47"/><line class="cls-7" x1="291.97" y1="187.39" x2="291.97" y2="186.31"/><line class="cls-8" x1="291.97" y1="177.84" x2="291.97" y2="170.96"/><line class="cls-6" x1="294.95" y1="184.61" x2="294.95" y2="181.62"/><line class="cls-7" x1="294.95" y1="187.17" x2="294.95" y2="186.06"/><line class="cls-8" x1="294.95" y1="179.53" x2="294.95" y2="174.26"/><line class="cls-6" x1="297.93" y1="186.44" x2="297.93" y2="184.27"/><line class="cls-7" x1="297.93" y1="187.91" x2="297.93" y2="187.09"/><line class="cls-8" x1="297.93" y1="176.03" x2="297.93" y2="168.86"/><line class="cls-6" x1="300.91" y1="185.99" x2="300.91" y2="183.17"/><line class="cls-7" x1="300.91" y1="187.23" x2="300.91" y2="186.03"/><line class="cls-8" x1="300.91" y1="179.54" x2="300.91" y2="171.89"/><line class="cls-6" x1="303.9" y1="186.18" x2="303.9" y2="183.32"/><line class="cls-7" x1="303.9" y1="187.49" x2="303.9" y2="186.75"/><line class="cls-8" x1="303.9" y1="178.26" x2="303.9" y2="172.89"/><line class="cls-6" x1="306.88" y1="184.48" x2="306.88" y2="181.52"/><line class="cls-7" x1="306.88" y1="186.88" x2="306.88" y2="185.57"/><line class="cls-8" x1="306.88" y1="179.43" x2="306.88" y2="173.82"/><line class="cls-6" x1="309.86" y1="184.97" x2="309.86" y2="182.3"/><line class="cls-7" x1="309.86" y1="187.16" x2="309.86" y2="186.01"/><line class="cls-8" x1="309.86" y1="178.12" x2="309.86" y2="170.01"/><line class="cls-6" x1="312.84" y1="184.55" x2="312.84" y2="181.73"/><line class="cls-7" x1="312.84" y1="186.82" x2="312.84" y2="185.51"/><line class="cls-8" x1="312.84" y1="177.12" x2="312.84" y2="168.86"/><line class="cls-6" x1="315.82" y1="184.28" x2="315.82" y2="181.7"/><line class="cls-7" x1="315.82" y1="186.44" x2="315.82" y2="184.75"/><line class="cls-8" x1="315.82" y1="169.33" x2="315.82" y2="158"/><line class="cls-6" x1="318.8" y1="184.94" x2="318.8" y2="182.4"/><line class="cls-7" x1="318.8" y1="186.91" x2="318.8" y2="185.66"/><line class="cls-8" x1="318.8" y1="180.35" x2="318.8" y2="176.31"/><line class="cls-6" x1="321.78" y1="183.48" x2="321.78" y2="180.5"/><line class="cls-7" x1="321.78" y1="186.88" x2="321.78" y2="184.37"/><line class="cls-8" x1="321.78" y1="174.58" x2="321.78" y2="164.91"/><line class="cls-6" x1="324.77" y1="184.11" x2="324.77" y2="181.49"/><line class="cls-7" x1="324.77" y1="186.83" x2="324.77" y2="185.34"/><line class="cls-8" x1="324.77" y1="179.81" x2="324.77" y2="174.23"/><line class="cls-6" x1="327.75" y1="183.66" x2="327.75" y2="180.49"/><line class="cls-7" x1="327.75" y1="186.92" x2="327.75" y2="185.5"/><line class="cls-8" x1="327.75" y1="176.82" x2="327.75" y2="171.25"/><line class="cls-6" x1="330.73" y1="184.68" x2="330.73" y2="181.9"/><line class="cls-7" x1="330.73" y1="187.37" x2="330.73" y2="185.84"/><line class="cls-8" x1="330.73" y1="178.66" x2="330.73" y2="172.47"/></g><text class="cls-13" transform="translate(236.8 192.12) rotate(-90)">0.0</text><text class="cls-13" transform="translate(236.8 180.32) rotate(-90)">0.1</text><text class="cls-13" transform="translate(236.8 168.19) rotate(-90)">0.2</text><text class="cls-13" transform="translate(236.8 155.83) rotate(-90)">0.3</text><text class="cls-13" transform="translate(236.8 144.42) rotate(-90)">0.4</text><text class="cls-13" transform="translate(236.8 124.71) rotate(-90)">0.0</text><text class="cls-13" transform="translate(236.8 113) rotate(-90)">0.1</text><text class="cls-13" transform="translate(236.8 100.96) rotate(-90)">0.2</text><text class="cls-13" transform="translate(236.8 88.78) rotate(-90)">0.3</text><text class="cls-13" transform="translate(236.8 76.83) rotate(-90)">0.4</text><text class="cls-13" transform="translate(236.8 58.67) rotate(-90)">0.0</text><text class="cls-13" transform="translate(236.8 47.19) rotate(-90)">0.1</text><text class="cls-13" transform="translate(236.8 34.7) rotate(-90)">0.2</text><text class="cls-13" transform="translate(236.8 23.02) rotate(-90)">0.3</text><text class="cls-13" transform="translate(236.8 11.16) rotate(-90)">0.4</text><line class="cls-2" x1="241.04" y1="191.86" x2="330.97" y2="191.86"/><line class="cls-2" x1="241.04" y1="191.86" x2="241.04" y2="193.58"/><line class="cls-2" x1="256.03" y1="191.86" x2="256.03" y2="193.58"/><line class="cls-2" x1="271.01" y1="191.86" x2="271.01" y2="193.58"/><line class="cls-2" x1="286" y1="191.86" x2="286" y2="193.58"/><line class="cls-2" x1="300.99" y1="191.86" x2="300.99" y2="193.58"/><line class="cls-2" x1="315.98" y1="191.86" x2="315.98" y2="193.58"/><line class="cls-2" x1="330.97" y1="191.86" x2="330.97" y2="193.58"/><text class="cls-3" transform="translate(240 202.88) scale(0.97 1)">0</text><text class="cls-14" transform="translate(253.91 203.07)">5</text><text class="cls-14" transform="translate(267.35 203.07)">10</text><text class="cls-14" transform="translate(298.31 203.07)">20</text><text class="cls-14" transform="translate(313.43 203.07)">25</text><text class="cls-14" transform="translate(327.59 203.07)">30</text><text class="cls-14" transform="translate(282.47 203.07)">15</text><text class="cls-15" transform="translate(248.63 11.62)">One <tspan class="cls-16" x="15.66" y="0">P</tspan><tspan x="19.71" y="0">eak</tspan></text><text class="cls-15" transform="translate(248.63 79.98)"><tspan class="cls-17">T</tspan><tspan class="cls-18" x="3.66" y="0">w</tspan><tspan class="cls-19" x="9.46" y="0">o </tspan><tspan class="cls-20" x="15.55" y="0">P</tspan><tspan x="19.61" y="0">eaks</tspan></text><text class="cls-15" transform="translate(248.63 145.5)"><tspan class="cls-21">M</tspan><tspan x="6.46" y="0">ulti </tspan><tspan class="cls-20" x="18.97" y="0">P</tspan><tspan x="23.02" y="0">eaks</tspan></text><path class="cls-22" d="M91.37,216.42h12.78"/><text class="cls-23" transform="translate(107.85 218.47)">L<tspan class="cls-24" x="2.69" y="0">TMG</tspan></text><path class="cls-25" d="M132.16,216.42H145"/><text class="cls-14" transform="translate(148.86 218.47)">ZIMG</text><path class="cls-26" d="M172.34,216.42h12.79"/><text class="cls-14" transform="translate(188.66 218.47)"><tspan class="cls-27">M</tspan><tspan x="5.56" y="0">AST</tspan></text><path class="cls-28" d="M214.16,216.42H227"/><text class="cls-14" transform="translate(230.48 218.47)">BPSC</text></g></g></svg>